<svg width="44" height="55" viewBox="0 0 44 55" fill="none" xmlns="http://www.w3.org/2000/svg">
<path d="M32.77 0.290099C32.655 0.161493 28.5088 0.340865 24.9007 4.25657C21.2927 8.16888 21.8477 12.6565 21.929 12.7716C22.0102 12.8867 27.0737 13.066 30.306 8.51409C33.5384 3.96213 32.8851 0.422089 32.77 0.290099ZM43.9868 39.9988C43.8244 39.6739 36.1175 35.8225 36.835 28.4175C37.5526 21.0125 42.5043 18.9785 42.5822 18.7585C42.66 18.5386 40.5615 16.0849 38.3378 14.8428C36.7048 13.968 34.8979 13.4663 33.0476 13.374C32.682 13.3639 31.4128 13.0525 28.8032 13.7666C27.0838 14.237 23.2084 15.76 22.1422 15.8209C21.0727 15.8818 17.8911 14.0543 14.4692 13.5703C12.2793 13.1473 9.95742 14.0137 8.29556 14.6804C6.63707 15.3437 3.48257 17.2322 1.27577 22.2512C-0.931033 27.2668 0.223137 35.2133 1.04899 37.6839C1.87485 40.1544 3.16441 44.1954 5.35767 47.1465C7.30723 50.4767 9.89312 52.7883 10.9728 53.5734C12.0525 54.3586 15.0987 54.8798 17.2108 53.8002C18.9099 52.7578 21.9764 52.1588 23.1881 52.2028C24.3964 52.2468 26.7792 52.7239 29.2195 54.0269C31.1522 54.6936 32.9799 54.4161 34.811 53.6716C36.6421 52.9236 39.2923 50.0875 42.3859 44.3375C43.5592 41.6639 44.0929 40.2176 43.9868 39.9988Z" fill="#6B5B5B"/>
<path d="M32.77 0.290099C32.655 0.161493 28.5088 0.340865 24.9007 4.25657C21.2927 8.16888 21.8477 12.6565 21.929 12.7716C22.0102 12.8867 27.0737 13.066 30.306 8.51409C33.5384 3.96213 32.8851 0.422089 32.77 0.290099ZM43.9868 39.9988C43.8244 39.6739 36.1175 35.8225 36.835 28.4175C37.5526 21.0125 42.5043 18.9785 42.5822 18.7585C42.66 18.5386 40.5615 16.0849 38.3378 14.8428C36.7048 13.968 34.8979 13.4663 33.0476 13.374C32.682 13.3639 31.4128 13.0525 28.8032 13.7666C27.0838 14.237 23.2084 15.76 22.1422 15.8209C21.0727 15.8818 17.8911 14.0543 14.4692 13.5703C12.2793 13.1473 9.95742 14.0137 8.29556 14.6804C6.63707 15.3437 3.48257 17.2322 1.27577 22.2512C-0.931033 27.2668 0.223137 35.2133 1.04899 37.6839C1.87485 40.1544 3.16441 44.1954 5.35767 47.1465C7.30723 50.4767 9.89312 52.7883 10.9728 53.5734C12.0525 54.3586 15.0987 54.8798 17.2108 53.8002C18.9099 52.7578 21.9764 52.1588 23.1881 52.2028C24.3964 52.2468 26.7792 52.7239 29.2195 54.0269C31.1522 54.6936 32.9799 54.4161 34.811 53.6716C36.6421 52.9236 39.2923 50.0875 42.3859 44.3375C43.5592 41.6639 44.0929 40.2176 43.9868 39.9988Z" fill="#6B5B5B"/>
</svg>
