<svg width="44" height="55" viewBox="0 0 44 55" fill="none" xmlns="http://www.w3.org/2000/svg">
<path d="M32.77 0.027101C32.655 -0.101516 28.5088 0.077871 24.9007 3.99392C21.2927 7.90659 21.8477 12.3947 21.929 12.5097C22.0102 12.6248 27.0737 12.8042 30.306 8.25183C33.5384 3.69946 32.8851 0.159103 32.77 0.027101ZM43.9868 39.7393C43.8244 39.4144 36.1175 35.5627 36.835 28.157C37.5526 20.7514 42.5043 18.7172 42.5822 18.4972C42.66 18.2772 40.5615 15.8233 38.3378 14.5811C36.7048 13.7062 34.8979 13.2045 33.0476 13.1122C32.682 13.102 31.4128 12.7907 28.8032 13.5048C27.0838 13.9753 23.2084 15.4984 22.1422 15.5593C21.0727 15.6202 17.8911 13.7925 14.4692 13.3085C12.2793 12.8854 9.95742 13.7519 8.29556 14.4187C6.63707 15.0821 3.48257 16.9707 1.27577 21.9902C-0.931033 27.0062 0.223137 34.9534 1.04899 37.4242C1.87485 39.895 3.16441 43.9363 5.35767 46.8877C7.30723 50.2183 9.89312 52.53 10.9728 53.3152C12.0525 54.1005 15.0987 54.6217 17.2108 53.542C18.9099 52.4995 21.9764 51.9004 23.1881 51.9444C24.3964 51.9884 26.7792 52.4657 29.2195 53.7688C31.1522 54.4355 32.9799 54.158 34.811 53.4134C36.6421 52.6654 39.2923 49.829 42.3859 44.0785C43.5592 41.4046 44.0929 39.9582 43.9868 39.7393Z" fill="white"/>
<path d="M32.77 0.027101C32.655 -0.101516 28.5088 0.077871 24.9007 3.99392C21.2927 7.90659 21.8477 12.3947 21.929 12.5097C22.0102 12.6248 27.0737 12.8042 30.306 8.25183C33.5384 3.69946 32.8851 0.159103 32.77 0.027101ZM43.9868 39.7393C43.8244 39.4144 36.1175 35.5627 36.835 28.157C37.5526 20.7514 42.5043 18.7172 42.5822 18.4972C42.66 18.2772 40.5615 15.8233 38.3378 14.5811C36.7048 13.7062 34.8979 13.2045 33.0476 13.1122C32.682 13.102 31.4128 12.7907 28.8032 13.5048C27.0838 13.9753 23.2084 15.4984 22.1422 15.5593C21.0727 15.6202 17.8911 13.7925 14.4692 13.3085C12.2793 12.8854 9.95742 13.7519 8.29556 14.4187C6.63707 15.0821 3.48257 16.9707 1.27577 21.9902C-0.931033 27.0062 0.223137 34.9534 1.04899 37.4242C1.87485 39.895 3.16441 43.9363 5.35767 46.8877C7.30723 50.2183 9.89312 52.53 10.9728 53.3152C12.0525 54.1005 15.0987 54.6217 17.2108 53.542C18.9099 52.4995 21.9764 51.9004 23.1881 51.9444C24.3964 51.9884 26.7792 52.4657 29.2195 53.7688C31.1522 54.4355 32.9799 54.158 34.811 53.4134C36.6421 52.6654 39.2923 49.829 42.3859 44.0785C43.5592 41.4046 44.0929 39.9582 43.9868 39.7393Z" fill="white"/>
</svg>
