<svg width="197" height="243" viewBox="0 0 197 243" fill="none" xmlns="http://www.w3.org/2000/svg">
<path d="M146.72 0.121328C146.205 -0.454475 127.641 0.348619 111.487 17.8803C95.333 35.3968 97.8183 55.4893 98.182 56.0045C98.5457 56.5197 121.216 57.3227 135.688 36.9424C150.16 16.562 147.236 0.712283 146.72 0.121328M196.941 177.908C196.214 176.453 161.708 159.209 164.92 126.055C168.133 92.9013 190.303 83.7945 190.652 82.8096C191.001 81.8247 181.605 70.839 171.649 65.2779C164.337 61.361 156.248 59.1149 147.963 58.7016C146.326 58.6562 140.644 57.2621 128.96 60.4594C121.262 62.5656 103.91 69.3843 99.1367 69.657C94.348 69.9298 80.1032 61.7473 64.7825 59.5805C54.9778 57.6864 44.5821 61.5655 37.1415 64.5506C29.716 67.5205 15.5924 75.9757 5.71195 98.4472C-4.16849 120.903 0.999043 156.482 4.69663 167.543C8.39422 178.605 14.1679 196.697 23.9877 209.91C32.7165 224.821 44.2942 235.17 49.1283 238.685C53.9625 242.201 67.6011 244.534 77.0572 239.701C84.6646 235.034 98.3941 232.352 103.819 232.548C109.229 232.745 119.898 234.882 130.824 240.716C139.477 243.701 147.66 242.458 155.858 239.125C164.057 235.776 175.922 223.078 189.773 197.334C195.026 185.363 197.416 178.888 196.941 177.908" fill="#6B5B5B" fill-opacity="0.1"/>
<path d="M146.72 0.121328C146.205 -0.454475 127.641 0.348619 111.487 17.8803C95.333 35.3968 97.8183 55.4893 98.182 56.0045C98.5457 56.5197 121.216 57.3227 135.688 36.9424C150.16 16.562 147.236 0.712283 146.72 0.121328M196.941 177.908C196.214 176.453 161.708 159.209 164.92 126.055C168.133 92.9013 190.303 83.7945 190.652 82.8096C191.001 81.8247 181.605 70.839 171.649 65.2779C164.337 61.361 156.248 59.1149 147.963 58.7016C146.326 58.6562 140.644 57.2621 128.96 60.4594C121.262 62.5656 103.91 69.3843 99.1367 69.657C94.348 69.9298 80.1032 61.7473 64.7825 59.5805C54.9778 57.6864 44.5821 61.5655 37.1415 64.5506C29.716 67.5205 15.5924 75.9757 5.71195 98.4472C-4.16849 120.903 0.999043 156.482 4.69663 167.543C8.39422 178.605 14.1679 196.697 23.9877 209.91C32.7165 224.821 44.2942 235.17 49.1283 238.685C53.9625 242.201 67.6011 244.534 77.0572 239.701C84.6646 235.034 98.3941 232.352 103.819 232.548C109.229 232.745 119.898 234.882 130.824 240.716C139.477 243.701 147.66 242.458 155.858 239.125C164.057 235.776 175.922 223.078 189.773 197.334C195.026 185.363 197.416 178.888 196.941 177.908" fill="#6B5B5B" fill-opacity="0.1"/>
</svg>
